
      <svg xmlns="http://www.w3.org/2000/svg" version="1.1" width="2400" height="1800" style="display: block;"><polygon stroke-linejoin="round" stroke-miterlimit="1" stroke-width="1" points="2685.0267333984375,1753.97412109375 2371.911865234375,2034.900390625 2708.2677001953125,1981.6964111328125" style="fill:#133e4a;stroke:#133e4a;"></polygon><polygon stroke-linejoin="round" stroke-miterlimit="1" stroke-width="1" points="2391.095703125,1802.7207641601562 2371.911865234375,2034.900390625 2685.0267333984375,1753.97412109375" style="fill:#143f4c;stroke:#143f4c;"></polygon><polygon stroke-linejoin="round" stroke-miterlimit="1" stroke-width="1" points="2761.1026611328125,1327.10693359375 2391.095703125,1802.7207641601562 2685.0267333984375,1753.97412109375" style="fill:#123d4a;stroke:#123d4a;"></polygon><polygon stroke-linejoin="round" stroke-miterlimit="1" stroke-width="1" points="2405.3902587890625,1451.2933349609375 2391.095703125,1802.7207641601562 2761.1026611328125,1327.10693359375" style="fill:#113b48;stroke:#113b48;"></polygon><polygon stroke-linejoin="round" stroke-miterlimit="1" stroke-width="1" points="2788.4002685546875,983.1688537597656 2405.3902587890625,1451.2933349609375 2761.1026611328125,1327.10693359375" style="fill:#0f3a47;stroke:#0f3a47;"></polygon><polygon stroke-linejoin="round" stroke-miterlimit="1" stroke-width="1" points="2521.0841064453125,1148.8442687988281 2405.3902587890625,1451.2933349609375 2788.4002685546875,983.1688537597656" style="fill:#0c3643;stroke:#0c3643;"></polygon><polygon stroke-linejoin="round" stroke-miterlimit="1" stroke-width="1" points="2660.0172119140625,647.9527587890625 2521.0841064453125,1148.8442687988281 2788.4002685546875,983.1688537597656" style="fill:#113c49;stroke:#113c49;"></polygon><polygon stroke-linejoin="round" stroke-miterlimit="1" stroke-width="1" points="2389.072021484375,642.3131103515625 2521.0841064453125,1148.8442687988281 2660.0172119140625,647.9527587890625" style="fill:#17414e;stroke:#17414e;"></polygon><polygon stroke-linejoin="round" stroke-miterlimit="1" stroke-width="1" points="2778.14990234375,474.9903564453125 2389.072021484375,642.3131103515625 2660.0172119140625,647.9527587890625" style="fill:#16414d;stroke:#16414d;"></polygon><polygon stroke-linejoin="round" stroke-miterlimit="1" stroke-width="1" points="2437.5762939453125,368.7186279296875 2389.072021484375,642.3131103515625 2778.14990234375,474.9903564453125" style="fill:#15404d;stroke:#15404d;"></polygon><polygon stroke-linejoin="round" stroke-miterlimit="1" stroke-width="1" points="2791.877197265625,142.27288818359375 2437.5762939453125,368.7186279296875 2778.14990234375,474.9903564453125" style="fill:#113b48;stroke:#113b48;"></polygon><polygon stroke-linejoin="round" stroke-miterlimit="1" stroke-width="1" points="2533.673095703125,-23.78131103515625 2437.5762939453125,368.7186279296875 2791.877197265625,142.27288818359375" style="fill:#0f3946;stroke:#0f3946;"></polygon><polygon stroke-linejoin="round" stroke-miterlimit="1" stroke-width="1" points="2674.364013671875,-348.94775390625 2533.673095703125,-23.78131103515625 2791.877197265625,142.27288818359375" style="fill:#0f3946;stroke:#0f3946;"></polygon><polygon stroke-linejoin="round" stroke-miterlimit="1" stroke-width="1" points="2393.73583984375,-185.4814453125 2533.673095703125,-23.78131103515625 2674.364013671875,-348.94775390625" style="fill:#153f4c;stroke:#153f4c;"></polygon><polygon stroke-linejoin="round" stroke-miterlimit="1" stroke-width="1" points="2391.095703125,1802.7207641601562 2172.3359375,2026.397216796875 2371.911865234375,2034.900390625" style="fill:#143f4c;stroke:#143f4c;"></polygon><polygon stroke-linejoin="round" stroke-miterlimit="1" stroke-width="1" points="2103.7586669921875,1687.5486450195312 2172.3359375,2026.397216796875 2391.095703125,1802.7207641601562" style="fill:#133d4a;stroke:#133d4a;"></polygon><polygon stroke-linejoin="round" stroke-miterlimit="1" stroke-width="1" points="2405.3902587890625,1451.2933349609375 2103.7586669921875,1687.5486450195312 2391.095703125,1802.7207641601562" style="fill:#123d4a;stroke:#123d4a;"></polygon><polygon stroke-linejoin="round" stroke-miterlimit="1" stroke-width="1" points="2135.5899658203125,1445.4850463867188 2103.7586669921875,1687.5486450195312 2405.3902587890625,1451.2933349609375" style="fill:#103a47;stroke:#103a47;"></polygon><polygon stroke-linejoin="round" stroke-miterlimit="1" stroke-width="1" points="2521.0841064453125,1148.8442687988281 2135.5899658203125,1445.4850463867188 2405.3902587890625,1451.2933349609375" style="fill:#0f3a47;stroke:#0f3a47;"></polygon><polygon stroke-linejoin="round" stroke-miterlimit="1" stroke-width="1" points="2212.8361206054688,975.216667175293 2135.5899658203125,1445.4850463867188 2521.0841064453125,1148.8442687988281" style="fill:#184350;stroke:#184350;"></polygon><polygon stroke-linejoin="round" stroke-miterlimit="1" stroke-width="1" points="2389.072021484375,642.3131103515625 2212.8361206054688,975.216667175293 2521.0841064453125,1148.8442687988281" style="fill:#184350;stroke:#184350;"></polygon><polygon stroke-linejoin="round" stroke-miterlimit="1" stroke-width="1" points="2096.2886962890625,648.8920593261719 2212.8361206054688,975.216667175293 2389.072021484375,642.3131103515625" style="fill:#16414e;stroke:#16414e;"></polygon><polygon stroke-linejoin="round" stroke-miterlimit="1" stroke-width="1" points="2437.5762939453125,368.7186279296875 2096.2886962890625,648.8920593261719 2389.072021484375,642.3131103515625" style="fill:#15404d;stroke:#15404d;"></polygon><polygon stroke-linejoin="round" stroke-miterlimit="1" stroke-width="1" points="2248.83984375,371.84814453125 2096.2886962890625,648.8920593261719 2437.5762939453125,368.7186279296875" style="fill:#1e4955;stroke:#1e4955;"></polygon><polygon stroke-linejoin="round" stroke-miterlimit="1" stroke-width="1" points="2533.673095703125,-23.78131103515625 2248.83984375,371.84814453125 2437.5762939453125,368.7186279296875" style="fill:#1c4753;stroke:#1c4753;"></polygon><polygon stroke-linejoin="round" stroke-miterlimit="1" stroke-width="1" points="2253.9598388671875,157.33544921875 2248.83984375,371.84814453125 2533.673095703125,-23.78131103515625" style="fill:#1a4551;stroke:#1a4551;"></polygon><polygon stroke-linejoin="round" stroke-miterlimit="1" stroke-width="1" points="2393.73583984375,-185.4814453125 2253.9598388671875,157.33544921875 2533.673095703125,-23.78131103515625" style="fill:#194450;stroke:#194450;"></polygon><polygon stroke-linejoin="round" stroke-miterlimit="1" stroke-width="1" points="2109.7354736328125,-179.3555908203125 2253.9598388671875,157.33544921875 2393.73583984375,-185.4814453125" style="fill:#15404d;stroke:#15404d;"></polygon><polygon stroke-linejoin="round" stroke-miterlimit="1" stroke-width="1" points="2103.7586669921875,1687.5486450195312 1831.884033203125,1999.4715576171875 2172.3359375,2026.397216796875" style="fill:#15404c;stroke:#15404c;"></polygon><polygon stroke-linejoin="round" stroke-miterlimit="1" stroke-width="1" points="1814.80712890625,1721.9766235351562 1831.884033203125,1999.4715576171875 2103.7586669921875,1687.5486450195312" style="fill:#16414d;stroke:#16414d;"></polygon><polygon stroke-linejoin="round" stroke-miterlimit="1" stroke-width="1" points="2135.5899658203125,1445.4850463867188 1814.80712890625,1721.9766235351562 2103.7586669921875,1687.5486450195312" style="fill:#133d4a;stroke:#133d4a;"></polygon><polygon stroke-linejoin="round" stroke-miterlimit="1" stroke-width="1" points="1949.8325805664062,1422.5119018554688 1814.80712890625,1721.9766235351562 2135.5899658203125,1445.4850463867188" style="fill:#15404d;stroke:#15404d;"></polygon><polygon stroke-linejoin="round" stroke-miterlimit="1" stroke-width="1" points="2212.8361206054688,975.216667175293 1949.8325805664062,1422.5119018554688 2135.5899658203125,1445.4850463867188" style="fill:#18434f;stroke:#18434f;"></polygon><polygon stroke-linejoin="round" stroke-miterlimit="1" stroke-width="1" points="1889.9255981445312,1145.0799407958984 1949.8325805664062,1422.5119018554688 2212.8361206054688,975.216667175293" style="fill:#1a4652;stroke:#1a4652;"></polygon><polygon stroke-linejoin="round" stroke-miterlimit="1" stroke-width="1" points="2096.2886962890625,648.8920593261719 1889.9255981445312,1145.0799407958984 2212.8361206054688,975.216667175293" style="fill:#194450;stroke:#194450;"></polygon><polygon stroke-linejoin="round" stroke-miterlimit="1" stroke-width="1" points="1820.921630859375,823.6027908325195 1889.9255981445312,1145.0799407958984 2096.2886962890625,648.8920593261719" style="fill:#1d4955;stroke:#1d4955;"></polygon><polygon stroke-linejoin="round" stroke-miterlimit="1" stroke-width="1" points="2248.83984375,371.84814453125 1820.921630859375,823.6027908325195 2096.2886962890625,648.8920593261719" style="fill:#1d4854;stroke:#1d4854;"></polygon><polygon stroke-linejoin="round" stroke-miterlimit="1" stroke-width="1" points="1877.9207153320312,312.6168212890625 1820.921630859375,823.6027908325195 2248.83984375,371.84814453125" style="fill:#1c4753;stroke:#1c4753;"></polygon><polygon stroke-linejoin="round" stroke-miterlimit="1" stroke-width="1" points="2253.9598388671875,157.33544921875 1877.9207153320312,312.6168212890625 2248.83984375,371.84814453125" style="fill:#194450;stroke:#194450;"></polygon><polygon stroke-linejoin="round" stroke-miterlimit="1" stroke-width="1" points="1934.538818359375,7.48565673828125 1877.9207153320312,312.6168212890625 2253.9598388671875,157.33544921875" style="fill:#194551;stroke:#194551;"></polygon><polygon stroke-linejoin="round" stroke-miterlimit="1" stroke-width="1" points="2109.7354736328125,-179.3555908203125 1934.538818359375,7.48565673828125 2253.9598388671875,157.33544921875" style="fill:#16414d;stroke:#16414d;"></polygon><polygon stroke-linejoin="round" stroke-miterlimit="1" stroke-width="1" points="1978.7569580078125,-359.100341796875 1934.538818359375,7.48565673828125 2109.7354736328125,-179.3555908203125" style="fill:#18434f;stroke:#18434f;"></polygon><polygon stroke-linejoin="round" stroke-miterlimit="1" stroke-width="1" points="1814.80712890625,1721.9766235351562 1682.4442749023438,2021.4078369140625 1831.884033203125,1999.4715576171875" style="fill:#1b4753;stroke:#1b4753;"></polygon><polygon stroke-linejoin="round" stroke-miterlimit="1" stroke-width="1" points="1571.3472900390625,1781.4744873046875 1682.4442749023438,2021.4078369140625 1814.80712890625,1721.9766235351562" style="fill:#16414d;stroke:#16414d;"></polygon><polygon stroke-linejoin="round" stroke-miterlimit="1" stroke-width="1" points="1949.8325805664062,1422.5119018554688 1571.3472900390625,1781.4744873046875 1814.80712890625,1721.9766235351562" style="fill:#184350;stroke:#184350;"></polygon><polygon stroke-linejoin="round" stroke-miterlimit="1" stroke-width="1" points="1537.3196716308594,1459.7244262695312 1571.3472900390625,1781.4744873046875 1949.8325805664062,1422.5119018554688" style="fill:#16414e;stroke:#16414e;"></polygon><polygon stroke-linejoin="round" stroke-miterlimit="1" stroke-width="1" points="1889.9255981445312,1145.0799407958984 1537.3196716308594,1459.7244262695312 1949.8325805664062,1422.5119018554688" style="fill:#1c4753;stroke:#1c4753;"></polygon><polygon stroke-linejoin="round" stroke-miterlimit="1" stroke-width="1" points="1693.2770385742188,1130.7652893066406 1537.3196716308594,1459.7244262695312 1889.9255981445312,1145.0799407958984" style="fill:#224e5a;stroke:#224e5a;"></polygon><polygon stroke-linejoin="round" stroke-miterlimit="1" stroke-width="1" points="1820.921630859375,823.6027908325195 1693.2770385742188,1130.7652893066406 1889.9255981445312,1145.0799407958984" style="fill:#214c58;stroke:#214c58;"></polygon><polygon stroke-linejoin="round" stroke-miterlimit="1" stroke-width="1" points="1698.6091918945312,722.7054748535156 1693.2770385742188,1130.7652893066406 1820.921630859375,823.6027908325195" style="fill:#1a4551;stroke:#1a4551;"></polygon><polygon stroke-linejoin="round" stroke-miterlimit="1" stroke-width="1" points="1877.9207153320312,312.6168212890625 1698.6091918945312,722.7054748535156 1820.921630859375,823.6027908325195" style="fill:#18434f;stroke:#18434f;"></polygon><polygon stroke-linejoin="round" stroke-miterlimit="1" stroke-width="1" points="1545.901123046875,351.55120849609375 1698.6091918945312,722.7054748535156 1877.9207153320312,312.6168212890625" style="fill:#224d59;stroke:#224d59;"></polygon><polygon stroke-linejoin="round" stroke-miterlimit="1" stroke-width="1" points="1934.538818359375,7.48565673828125 1545.901123046875,351.55120849609375 1877.9207153320312,312.6168212890625" style="fill:#1f4b56;stroke:#1f4b56;"></polygon><polygon stroke-linejoin="round" stroke-miterlimit="1" stroke-width="1" points="1596.9190368652344,94.43524169921875 1545.901123046875,351.55120849609375 1934.538818359375,7.48565673828125" style="fill:#1f4b57;stroke:#1f4b57;"></polygon><polygon stroke-linejoin="round" stroke-miterlimit="1" stroke-width="1" points="1978.7569580078125,-359.100341796875 1596.9190368652344,94.43524169921875 1934.538818359375,7.48565673828125" style="fill:#18434f;stroke:#18434f;"></polygon><polygon stroke-linejoin="round" stroke-miterlimit="1" stroke-width="1" points="1566.8343505859375,-218.725830078125 1596.9190368652344,94.43524169921875 1978.7569580078125,-359.100341796875" style="fill:#194451;stroke:#194451;"></polygon><polygon stroke-linejoin="round" stroke-miterlimit="1" stroke-width="1" points="1571.3472900390625,1781.4744873046875 1407.8985290527344,1988.494384765625 1682.4442749023438,2021.4078369140625" style="fill:#16404d;stroke:#16404d;"></polygon><polygon stroke-linejoin="round" stroke-miterlimit="1" stroke-width="1" points="1258.363639831543,1699.0404663085938 1407.8985290527344,1988.494384765625 1571.3472900390625,1781.4744873046875" style="fill:#194450;stroke:#194450;"></polygon><polygon stroke-linejoin="round" stroke-miterlimit="1" stroke-width="1" points="1537.3196716308594,1459.7244262695312 1258.363639831543,1699.0404663085938 1571.3472900390625,1781.4744873046875" style="fill:#194450;stroke:#194450;"></polygon><polygon stroke-linejoin="round" stroke-miterlimit="1" stroke-width="1" points="1319.4582061767578,1486.490966796875 1258.363639831543,1699.0404663085938 1537.3196716308594,1459.7244262695312" style="fill:#16414d;stroke:#16414d;"></polygon><polygon stroke-linejoin="round" stroke-miterlimit="1" stroke-width="1" points="1693.2770385742188,1130.7652893066406 1319.4582061767578,1486.490966796875 1537.3196716308594,1459.7244262695312" style="fill:#224e59;stroke:#224e59;"></polygon><polygon stroke-linejoin="round" stroke-miterlimit="1" stroke-width="1" points="1302.9326934814453,982.5172500610352 1319.4582061767578,1486.490966796875 1693.2770385742188,1130.7652893066406" style="fill:#234f5b;stroke:#234f5b;"></polygon><polygon stroke-linejoin="round" stroke-miterlimit="1" stroke-width="1" points="1698.6091918945312,722.7054748535156 1302.9326934814453,982.5172500610352 1693.2770385742188,1130.7652893066406" style="fill:#234f5b;stroke:#234f5b;"></polygon><polygon stroke-linejoin="round" stroke-miterlimit="1" stroke-width="1" points="1276.5596771240234,642.5763244628906 1302.9326934814453,982.5172500610352 1698.6091918945312,722.7054748535156" style="fill:#2c5963;stroke:#2c5963;"></polygon><polygon stroke-linejoin="round" stroke-miterlimit="1" stroke-width="1" points="1545.901123046875,351.55120849609375 1276.5596771240234,642.5763244628906 1698.6091918945312,722.7054748535156" style="fill:#285560;stroke:#285560;"></polygon><polygon stroke-linejoin="round" stroke-miterlimit="1" stroke-width="1" points="1416.6590576171875,386.75531005859375 1276.5596771240234,642.5763244628906 1545.901123046875,351.55120849609375" style="fill:#234e5a;stroke:#234e5a;"></polygon><polygon stroke-linejoin="round" stroke-miterlimit="1" stroke-width="1" points="1596.9190368652344,94.43524169921875 1416.6590576171875,386.75531005859375 1545.901123046875,351.55120849609375" style="fill:#1d4854;stroke:#1d4854;"></polygon><polygon stroke-linejoin="round" stroke-miterlimit="1" stroke-width="1" points="1256.460594177246,101.4833984375 1416.6590576171875,386.75531005859375 1596.9190368652344,94.43524169921875" style="fill:#295560;stroke:#295560;"></polygon><polygon stroke-linejoin="round" stroke-miterlimit="1" stroke-width="1" points="1566.8343505859375,-218.725830078125 1256.460594177246,101.4833984375 1596.9190368652344,94.43524169921875" style="fill:#224d59;stroke:#224d59;"></polygon><polygon stroke-linejoin="round" stroke-miterlimit="1" stroke-width="1" points="1342.7760009765625,-302.5223388671875 1256.460594177246,101.4833984375 1566.8343505859375,-218.725830078125" style="fill:#214c58;stroke:#214c58;"></polygon><polygon stroke-linejoin="round" stroke-miterlimit="1" stroke-width="1" points="1258.363639831543,1699.0404663085938 1047.076171875,2147.739990234375 1407.8985290527344,1988.494384765625" style="fill:#184350;stroke:#184350;"></polygon><polygon stroke-linejoin="round" stroke-miterlimit="1" stroke-width="1" points="1034.128677368164,1714.8037719726562 1047.076171875,2147.739990234375 1258.363639831543,1699.0404663085938" style="fill:#18434f;stroke:#18434f;"></polygon><polygon stroke-linejoin="round" stroke-miterlimit="1" stroke-width="1" points="1319.4582061767578,1486.490966796875 1034.128677368164,1714.8037719726562 1258.363639831543,1699.0404663085938" style="fill:#143e4b;stroke:#143e4b;"></polygon><polygon stroke-linejoin="round" stroke-miterlimit="1" stroke-width="1" points="1143.707763671875,1374.3677673339844 1034.128677368164,1714.8037719726562 1319.4582061767578,1486.490966796875" style="fill:#234f5b;stroke:#234f5b;"></polygon><polygon stroke-linejoin="round" stroke-miterlimit="1" stroke-width="1" points="1302.9326934814453,982.5172500610352 1143.707763671875,1374.3677673339844 1319.4582061767578,1486.490966796875" style="fill:#2a5661;stroke:#2a5661;"></polygon><polygon stroke-linejoin="round" stroke-miterlimit="1" stroke-width="1" points="1079.8975067138672,982.2315368652344 1143.707763671875,1374.3677673339844 1302.9326934814453,982.5172500610352" style="fill:#2a5661;stroke:#2a5661;"></polygon><polygon stroke-linejoin="round" stroke-miterlimit="1" stroke-width="1" points="1276.5596771240234,642.5763244628906 1079.8975067138672,982.2315368652344 1302.9326934814453,982.5172500610352" style="fill:#33606a;stroke:#33606a;"></polygon><polygon stroke-linejoin="round" stroke-miterlimit="1" stroke-width="1" points="1000.4454650878906,793.1333770751953 1079.8975067138672,982.2315368652344 1276.5596771240234,642.5763244628906" style="fill:#4d7b83;stroke:#4d7b83;"></polygon><polygon stroke-linejoin="round" stroke-miterlimit="1" stroke-width="1" points="1416.6590576171875,386.75531005859375 1000.4454650878906,793.1333770751953 1276.5596771240234,642.5763244628906" style="fill:#426f78;stroke:#426f78;"></polygon><polygon stroke-linejoin="round" stroke-miterlimit="1" stroke-width="1" points="1081.786979675293,475.6653137207031 1000.4454650878906,793.1333770751953 1416.6590576171875,386.75531005859375" style="fill:#46757d;stroke:#46757d;"></polygon><polygon stroke-linejoin="round" stroke-miterlimit="1" stroke-width="1" points="1256.460594177246,101.4833984375 1081.786979675293,475.6653137207031 1416.6590576171875,386.75531005859375" style="fill:#335f69;stroke:#335f69;"></polygon><polygon stroke-linejoin="round" stroke-miterlimit="1" stroke-width="1" points="1059.8964538574219,-16.4521484375 1081.786979675293,475.6653137207031 1256.460594177246,101.4833984375" style="fill:#315e68;stroke:#315e68;"></polygon><polygon stroke-linejoin="round" stroke-miterlimit="1" stroke-width="1" points="1342.7760009765625,-302.5223388671875 1059.8964538574219,-16.4521484375 1256.460594177246,101.4833984375" style="fill:#28545f;stroke:#28545f;"></polygon><polygon stroke-linejoin="round" stroke-miterlimit="1" stroke-width="1" points="1128.974739074707,-351.69189453125 1059.8964538574219,-16.4521484375 1342.7760009765625,-302.5223388671875" style="fill:#234f5a;stroke:#234f5a;"></polygon><polygon stroke-linejoin="round" stroke-miterlimit="1" stroke-width="1" points="1034.128677368164,1714.8037719726562 753.2602233886719,2010.11962890625 1047.076171875,2147.739990234375" style="fill:#17424f;stroke:#17424f;"></polygon><polygon stroke-linejoin="round" stroke-miterlimit="1" stroke-width="1" points="814.8214721679688,1816.4180297851562 753.2602233886719,2010.11962890625 1034.128677368164,1714.8037719726562" style="fill:#16414e;stroke:#16414e;"></polygon><polygon stroke-linejoin="round" stroke-miterlimit="1" stroke-width="1" points="1143.707763671875,1374.3677673339844 814.8214721679688,1816.4180297851562 1034.128677368164,1714.8037719726562" style="fill:#1f4b56;stroke:#1f4b56;"></polygon><polygon stroke-linejoin="round" stroke-miterlimit="1" stroke-width="1" points="839.6700439453125,1432.69677734375 814.8214721679688,1816.4180297851562 1143.707763671875,1374.3677673339844" style="fill:#244f5b;stroke:#244f5b;"></polygon><polygon stroke-linejoin="round" stroke-miterlimit="1" stroke-width="1" points="1079.8975067138672,982.2315368652344 839.6700439453125,1432.69677734375 1143.707763671875,1374.3677673339844" style="fill:#295560;stroke:#295560;"></polygon><polygon stroke-linejoin="round" stroke-miterlimit="1" stroke-width="1" points="752.8419189453125,982.9570007324219 839.6700439453125,1432.69677734375 1079.8975067138672,982.2315368652344" style="fill:#35626c;stroke:#35626c;"></polygon><polygon stroke-linejoin="round" stroke-miterlimit="1" stroke-width="1" points="1000.4454650878906,793.1333770751953 752.8419189453125,982.9570007324219 1079.8975067138672,982.2315368652344" style="fill:#54838a;stroke:#54838a;"></polygon><polygon stroke-linejoin="round" stroke-miterlimit="1" stroke-width="1" points="807.6394958496094,643.0125427246094 752.8419189453125,982.9570007324219 1000.4454650878906,793.1333770751953" style="fill:#79aaae;stroke:#79aaae;"></polygon><polygon stroke-linejoin="round" stroke-miterlimit="1" stroke-width="1" points="1081.786979675293,475.6653137207031 807.6394958496094,643.0125427246094 1000.4454650878906,793.1333770751953" style="fill:#87b9bc;stroke:#87b9bc;"></polygon><polygon stroke-linejoin="round" stroke-miterlimit="1" stroke-width="1" points="723.5723876953125,488.94061279296875 807.6394958496094,643.0125427246094 1081.786979675293,475.6653137207031" style="fill:#b6ebea;stroke:#b6ebea;"></polygon><polygon stroke-linejoin="round" stroke-miterlimit="1" stroke-width="1" points="1059.8964538574219,-16.4521484375 723.5723876953125,488.94061279296875 1081.786979675293,475.6653137207031" style="fill:#507e86;stroke:#507e86;"></polygon><polygon stroke-linejoin="round" stroke-miterlimit="1" stroke-width="1" points="859.1782836914062,146.45037841796875 723.5723876953125,488.94061279296875 1059.8964538574219,-16.4521484375" style="fill:#437179;stroke:#437179;"></polygon><polygon stroke-linejoin="round" stroke-miterlimit="1" stroke-width="1" points="1128.974739074707,-351.69189453125 859.1782836914062,146.45037841796875 1059.8964538574219,-16.4521484375" style="fill:#2b5762;stroke:#2b5762;"></polygon><polygon stroke-linejoin="round" stroke-miterlimit="1" stroke-width="1" points="724.5823364257812,-284.630615234375 859.1782836914062,146.45037841796875 1128.974739074707,-351.69189453125" style="fill:#28545f;stroke:#28545f;"></polygon><polygon stroke-linejoin="round" stroke-miterlimit="1" stroke-width="1" points="814.8214721679688,1816.4180297851562 485.19219970703125,2159.55810546875 753.2602233886719,2010.11962890625" style="fill:#133e4b;stroke:#133e4b;"></polygon><polygon stroke-linejoin="round" stroke-miterlimit="1" stroke-width="1" points="425.99853515625,1789.1119995117188 485.19219970703125,2159.55810546875 814.8214721679688,1816.4180297851562" style="fill:#1c4753;stroke:#1c4753;"></polygon><polygon stroke-linejoin="round" stroke-miterlimit="1" stroke-width="1" points="839.6700439453125,1432.69677734375 425.99853515625,1789.1119995117188 814.8214721679688,1816.4180297851562" style="fill:#204c57;stroke:#204c57;"></polygon><polygon stroke-linejoin="round" stroke-miterlimit="1" stroke-width="1" points="473.95281982421875,1326.043701171875 425.99853515625,1789.1119995117188 839.6700439453125,1432.69677734375" style="fill:#1f4b57;stroke:#1f4b57;"></polygon><polygon stroke-linejoin="round" stroke-miterlimit="1" stroke-width="1" points="752.8419189453125,982.9570007324219 473.95281982421875,1326.043701171875 839.6700439453125,1432.69677734375" style="fill:#2e5a65;stroke:#2e5a65;"></polygon><polygon stroke-linejoin="round" stroke-miterlimit="1" stroke-width="1" points="468.2030029296875,1046.2891998291016 473.95281982421875,1326.043701171875 752.8419189453125,982.9570007324219" style="fill:#37646e;stroke:#37646e;"></polygon><polygon stroke-linejoin="round" stroke-miterlimit="1" stroke-width="1" points="807.6394958496094,643.0125427246094 468.2030029296875,1046.2891998291016 752.8419189453125,982.9570007324219" style="fill:#58888f;stroke:#58888f;"></polygon><polygon stroke-linejoin="round" stroke-miterlimit="1" stroke-width="1" points="436.929443359375,641.4746704101562 468.2030029296875,1046.2891998291016 807.6394958496094,643.0125427246094" style="fill:#5f8f95;stroke:#5f8f95;"></polygon><polygon stroke-linejoin="round" stroke-miterlimit="1" stroke-width="1" points="723.5723876953125,488.94061279296875 436.929443359375,641.4746704101562 807.6394958496094,643.0125427246094" style="fill:#a1d6d6;stroke:#a1d6d6;"></polygon><polygon stroke-linejoin="round" stroke-miterlimit="1" stroke-width="1" points="585.7034301757812,339.81402587890625 436.929443359375,641.4746704101562 723.5723876953125,488.94061279296875" style="fill:#6b9ca1;stroke:#6b9ca1;"></polygon><polygon stroke-linejoin="round" stroke-miterlimit="1" stroke-width="1" points="859.1782836914062,146.45037841796875 585.7034301757812,339.81402587890625 723.5723876953125,488.94061279296875" style="fill:#5b8a91;stroke:#5b8a91;"></polygon><polygon stroke-linejoin="round" stroke-miterlimit="1" stroke-width="1" points="505.627197265625,157.9676513671875 585.7034301757812,339.81402587890625 859.1782836914062,146.45037841796875" style="fill:#427079;stroke:#427079;"></polygon><polygon stroke-linejoin="round" stroke-miterlimit="1" stroke-width="1" points="724.5823364257812,-284.630615234375 505.627197265625,157.9676513671875 859.1782836914062,146.45037841796875" style="fill:#305d67;stroke:#305d67;"></polygon><polygon stroke-linejoin="round" stroke-miterlimit="1" stroke-width="1" points="517.86474609375,-225.32763671875 505.627197265625,157.9676513671875 724.5823364257812,-284.630615234375" style="fill:#295560;stroke:#295560;"></polygon><polygon stroke-linejoin="round" stroke-miterlimit="1" stroke-width="1" points="425.99853515625,1789.1119995117188 235.49871826171875,2013.6304931640625 485.19219970703125,2159.55810546875" style="fill:#1b4652;stroke:#1b4652;"></polygon><polygon stroke-linejoin="round" stroke-miterlimit="1" stroke-width="1" points="271.631103515625,1683.7529907226562 235.49871826171875,2013.6304931640625 425.99853515625,1789.1119995117188" style="fill:#1a4652;stroke:#1a4652;"></polygon><polygon stroke-linejoin="round" stroke-miterlimit="1" stroke-width="1" points="473.95281982421875,1326.043701171875 271.631103515625,1683.7529907226562 425.99853515625,1789.1119995117188" style="fill:#1c4753;stroke:#1c4753;"></polygon><polygon stroke-linejoin="round" stroke-miterlimit="1" stroke-width="1" points="302.50250244140625,1384.6253967285156 271.631103515625,1683.7529907226562 473.95281982421875,1326.043701171875" style="fill:#1f4a56;stroke:#1f4a56;"></polygon><polygon stroke-linejoin="round" stroke-miterlimit="1" stroke-width="1" points="468.2030029296875,1046.2891998291016 302.50250244140625,1384.6253967285156 473.95281982421875,1326.043701171875" style="fill:#2c5863;stroke:#2c5863;"></polygon><polygon stroke-linejoin="round" stroke-miterlimit="1" stroke-width="1" points="146.869873046875,985.063362121582 302.50250244140625,1384.6253967285156 468.2030029296875,1046.2891998291016" style="fill:#2e5a64;stroke:#2e5a64;"></polygon><polygon stroke-linejoin="round" stroke-miterlimit="1" stroke-width="1" points="436.929443359375,641.4746704101562 146.869873046875,985.063362121582 468.2030029296875,1046.2891998291016" style="fill:#35626c;stroke:#35626c;"></polygon><polygon stroke-linejoin="round" stroke-miterlimit="1" stroke-width="1" points="165.290283203125,763.4405212402344 146.869873046875,985.063362121582 436.929443359375,641.4746704101562" style="fill:#325f69;stroke:#325f69;"></polygon><polygon stroke-linejoin="round" stroke-miterlimit="1" stroke-width="1" points="585.7034301757812,339.81402587890625 165.290283203125,763.4405212402344 436.929443359375,641.4746704101562" style="fill:#416f77;stroke:#416f77;"></polygon><polygon stroke-linejoin="round" stroke-miterlimit="1" stroke-width="1" points="258.2816162109375,390.8825988769531 165.290283203125,763.4405212402344 585.7034301757812,339.81402587890625" style="fill:#3f6c75;stroke:#3f6c75;"></polygon><polygon stroke-linejoin="round" stroke-miterlimit="1" stroke-width="1" points="505.627197265625,157.9676513671875 258.2816162109375,390.8825988769531 585.7034301757812,339.81402587890625" style="fill:#3d6b74;stroke:#3d6b74;"></polygon><polygon stroke-linejoin="round" stroke-miterlimit="1" stroke-width="1" points="213.181884765625,143.51641845703125 258.2816162109375,390.8825988769531 505.627197265625,157.9676513671875" style="fill:#315e68;stroke:#315e68;"></polygon><polygon stroke-linejoin="round" stroke-miterlimit="1" stroke-width="1" points="517.86474609375,-225.32763671875 213.181884765625,143.51641845703125 505.627197265625,157.9676513671875" style="fill:#2d5964;stroke:#2d5964;"></polygon><polygon stroke-linejoin="round" stroke-miterlimit="1" stroke-width="1" points="238.94598388671875,-177.4451904296875 213.181884765625,143.51641845703125 517.86474609375,-225.32763671875" style="fill:#224e59;stroke:#224e59;"></polygon><polygon stroke-linejoin="round" stroke-miterlimit="1" stroke-width="1" points="271.631103515625,1683.7529907226562 -55.7476806640625,2006.954833984375 235.49871826171875,2013.6304931640625" style="fill:#184350;stroke:#184350;"></polygon><polygon stroke-linejoin="round" stroke-miterlimit="1" stroke-width="1" points="-135.4356689453125,1655.6049194335938 -55.7476806640625,2006.954833984375 271.631103515625,1683.7529907226562" style="fill:#1a4551;stroke:#1a4551;"></polygon><polygon stroke-linejoin="round" stroke-miterlimit="1" stroke-width="1" points="302.50250244140625,1384.6253967285156 -135.4356689453125,1655.6049194335938 271.631103515625,1683.7529907226562" style="fill:#1a4551;stroke:#1a4551;"></polygon><polygon stroke-linejoin="round" stroke-miterlimit="1" stroke-width="1" points="15.7054443359375,1309.661865234375 -135.4356689453125,1655.6049194335938 302.50250244140625,1384.6253967285156" style="fill:#1d4955;stroke:#1d4955;"></polygon><polygon stroke-linejoin="round" stroke-miterlimit="1" stroke-width="1" points="146.869873046875,985.063362121582 15.7054443359375,1309.661865234375 302.50250244140625,1384.6253967285156" style="fill:#224e59;stroke:#224e59;"></polygon><polygon stroke-linejoin="round" stroke-miterlimit="1" stroke-width="1" points="-129.1458740234375,976.0173645019531 15.7054443359375,1309.661865234375 146.869873046875,985.063362121582" style="fill:#25515c;stroke:#25515c;"></polygon><polygon stroke-linejoin="round" stroke-miterlimit="1" stroke-width="1" points="165.290283203125,763.4405212402344 -129.1458740234375,976.0173645019531 146.869873046875,985.063362121582" style="fill:#27535e;stroke:#27535e;"></polygon><polygon stroke-linejoin="round" stroke-miterlimit="1" stroke-width="1" points="9.1600341796875,820.2330627441406 -129.1458740234375,976.0173645019531 165.290283203125,763.4405212402344" style="fill:#26525d;stroke:#26525d;"></polygon><polygon stroke-linejoin="round" stroke-miterlimit="1" stroke-width="1" points="258.2816162109375,390.8825988769531 9.1600341796875,820.2330627441406 165.290283203125,763.4405212402344" style="fill:#2e5a65;stroke:#2e5a65;"></polygon><polygon stroke-linejoin="round" stroke-miterlimit="1" stroke-width="1" points="-7.6888427734375,329.68939208984375 9.1600341796875,820.2330627441406 258.2816162109375,390.8825988769531" style="fill:#295660;stroke:#295660;"></polygon><polygon stroke-linejoin="round" stroke-miterlimit="1" stroke-width="1" points="213.181884765625,143.51641845703125 -7.6888427734375,329.68939208984375 258.2816162109375,390.8825988769531" style="fill:#295560;stroke:#295560;"></polygon><polygon stroke-linejoin="round" stroke-miterlimit="1" stroke-width="1" points="29.58984375,27.10205078125 -7.6888427734375,329.68939208984375 213.181884765625,143.51641845703125" style="fill:#26525d;stroke:#26525d;"></polygon><polygon stroke-linejoin="round" stroke-miterlimit="1" stroke-width="1" points="238.94598388671875,-177.4451904296875 29.58984375,27.10205078125 213.181884765625,143.51641845703125" style="fill:#24505b;stroke:#24505b;"></polygon><polygon stroke-linejoin="round" stroke-miterlimit="1" stroke-width="1" points="-100.4647216796875,-260.7991943359375 29.58984375,27.10205078125 238.94598388671875,-177.4451904296875" style="fill:#1c4753;stroke:#1c4753;"></polygon><polygon stroke-linejoin="round" stroke-miterlimit="1" stroke-width="1" points="-135.4356689453125,1655.6049194335938 -289.3892822265625,1979.0931396484375 -55.7476806640625,2006.954833984375" style="fill:#133e4b;stroke:#133e4b;"></polygon><polygon stroke-linejoin="round" stroke-miterlimit="1" stroke-width="1" points="-280.57080078125,1824.8082275390625 -289.3892822265625,1979.0931396484375 -135.4356689453125,1655.6049194335938" style="fill:#17424e;stroke:#17424e;"></polygon><polygon stroke-linejoin="round" stroke-miterlimit="1" stroke-width="1" points="15.7054443359375,1309.661865234375 -280.57080078125,1824.8082275390625 -135.4356689453125,1655.6049194335938" style="fill:#194451;stroke:#194451;"></polygon><polygon stroke-linejoin="round" stroke-miterlimit="1" stroke-width="1" points="-320.344970703125,1318.35302734375 -280.57080078125,1824.8082275390625 15.7054443359375,1309.661865234375" style="fill:#1a4652;stroke:#1a4652;"></polygon><polygon stroke-linejoin="round" stroke-miterlimit="1" stroke-width="1" points="-129.1458740234375,976.0173645019531 -320.344970703125,1318.35302734375 15.7054443359375,1309.661865234375" style="fill:#1c4753;stroke:#1c4753;"></polygon><polygon stroke-linejoin="round" stroke-miterlimit="1" stroke-width="1" points="-292.9130859375,1011.8991851806641 -320.344970703125,1318.35302734375 -129.1458740234375,976.0173645019531" style="fill:#1a4551;stroke:#1a4551;"></polygon><polygon stroke-linejoin="round" stroke-miterlimit="1" stroke-width="1" points="9.1600341796875,820.2330627441406 -292.9130859375,1011.8991851806641 -129.1458740234375,976.0173645019531" style="fill:#1d4954;stroke:#1d4954;"></polygon><polygon stroke-linejoin="round" stroke-miterlimit="1" stroke-width="1" points="-270.488037109375,791.7492523193359 -292.9130859375,1011.8991851806641 9.1600341796875,820.2330627441406" style="fill:#1d4954;stroke:#1d4954;"></polygon><polygon stroke-linejoin="round" stroke-miterlimit="1" stroke-width="1" points="-7.6888427734375,329.68939208984375 -270.488037109375,791.7492523193359 9.1600341796875,820.2330627441406" style="fill:#224e59;stroke:#224e59;"></polygon><polygon stroke-linejoin="round" stroke-miterlimit="1" stroke-width="1" points="-257.547119140625,480.30877685546875 -270.488037109375,791.7492523193359 -7.6888427734375,329.68939208984375" style="fill:#1b4652;stroke:#1b4652;"></polygon><polygon stroke-linejoin="round" stroke-miterlimit="1" stroke-width="1" points="29.58984375,27.10205078125 -257.547119140625,480.30877685546875 -7.6888427734375,329.68939208984375" style="fill:#1f4a56;stroke:#1f4a56;"></polygon><polygon stroke-linejoin="round" stroke-miterlimit="1" stroke-width="1" points="-413.9090576171875,152.5633544921875 -257.547119140625,480.30877685546875 29.58984375,27.10205078125" style="fill:#1b4652;stroke:#1b4652;"></polygon><polygon stroke-linejoin="round" stroke-miterlimit="1" stroke-width="1" points="-100.4647216796875,-260.7991943359375 -413.9090576171875,152.5633544921875 29.58984375,27.10205078125" style="fill:#18434f;stroke:#18434f;"></polygon><polygon stroke-linejoin="round" stroke-miterlimit="1" stroke-width="1" points="-408.5679931640625,-186.3077392578125 -413.9090576171875,152.5633544921875 -100.4647216796875,-260.7991943359375" style="fill:#1a4551;stroke:#1a4551;"></polygon></svg>