<?xml version="1.0" encoding="UTF-8" standalone="no"?>
<svg
   xmlns:dc="http://purl.org/dc/elements/1.1/"
   xmlns:cc="http://creativecommons.org/ns#"
   xmlns:rdf="http://www.w3.org/1999/02/22-rdf-syntax-ns#"
   xmlns:svg="http://www.w3.org/2000/svg"
   xmlns="http://www.w3.org/2000/svg"
   xmlns:sodipodi="http://sodipodi.sourceforge.net/DTD/sodipodi-0.dtd"
   xmlns:inkscape="http://www.inkscape.org/namespaces/inkscape"
   width="48"
   viewBox="0 0 48 48.021375"
   height="48.021374"
   id="svg4310"
   version="1.1"
   inkscape:version="0.91 r13725"
   sodipodi:docname="reboot.svg">
  <metadata
     id="metadata4322">
    <rdf:RDF>
      <cc:Work
         rdf:about="">
        <dc:format>image/svg+xml</dc:format>
        <dc:type
           rdf:resource="http://purl.org/dc/dcmitype/StillImage" />
        <dc:title></dc:title>
      </cc:Work>
    </rdf:RDF>
  </metadata>
  <sodipodi:namedview
     pagecolor="#ffffff"
     bordercolor="#666666"
     borderopacity="1"
     objecttolerance="10"
     gridtolerance="10"
     guidetolerance="10"
     inkscape:pageopacity="0"
     inkscape:pageshadow="2"
     inkscape:window-width="794"
     inkscape:window-height="874"
     id="namedview4320"
     showgrid="false"
     inkscape:zoom="7.744316"
     inkscape:cx="34.967857"
     inkscape:cy="27.8808"
     inkscape:window-x="4"
     inkscape:window-y="22"
     inkscape:window-maximized="0"
     inkscape:current-layer="svg4310"
     fit-margin-top="0"
     fit-margin-left="0"
     fit-margin-right="0"
     fit-margin-bottom="0" />
  <defs
     id="defs4312" />
  <rect
     style="fill:#002b36;fill-opacity:1;stroke:none;stroke-width:6.5999999;stroke-miterlimit:4;stroke-dasharray:none;stroke-opacity:1"
     id="rect4326"
     width="48"
     height="48.021"
     x="0"
     y="0" />
  <path
     inkscape:connector-curvature="0"
     id="path4316"
     d="M 16.5,1.0526249 C 6.8951463,4.2298429 0,13.360005 0,23.927625 c 0,13.168785 10.741135,24.09375 24,24.09375 13.258866,0 24,-10.924965 24,-24.09375 C 48,13.361661 41.102928,4.2315159 31.5,1.0526249 l 0,6.46875 C 37.625892,10.407231 42,16.610533 42,23.927625 c 0,10.101102 -8.07126,18.1875 -18,18.1875 -9.928739,0 -18,-8.086398 -18,-18.1875 0,-7.377478 4.331333,-13.642813 10.5,-16.5000001 l 0,-6.375 z"
     style="color:#000000;line-height:normal;fill:#b58900;fill-opacity:1" />
  <rect
     style="fill:#b58900;fill-opacity:1"
     id="rect4318"
     transform="scale(-1,1)"
     height="27.228174"
     ry="0"
     rx="2.5110002"
     y="0.90203476"
     x="-33.127655"
     width="6" />
  <rect
     style="fill:#b58900;fill-opacity:1"
     id="rect4318-3"
     transform="matrix(-0.70710678,0.70710678,0.70710678,0.70710678,0,0)"
     height="15.994127"
     ry="0"
     rx="2.5110002"
     y="25.26226"
     x="-6.2466893"
     width="6" />
  <rect
     style="fill:#b58900;fill-opacity:1"
     id="rect4318-6"
     transform="scale(-1,1)"
     height="12.120319"
     ry="0"
     rx="2.5110002"
     y="3.0915422"
     x="-16.495228"
     width="6" />
</svg>
