<?xml version="1.0" encoding="UTF-8" standalone="no"?>
<svg
   xmlns:dc="http://purl.org/dc/elements/1.1/"
   xmlns:cc="http://creativecommons.org/ns#"
   xmlns:rdf="http://www.w3.org/1999/02/22-rdf-syntax-ns#"
   xmlns:svg="http://www.w3.org/2000/svg"
   xmlns="http://www.w3.org/2000/svg"
   xmlns:sodipodi="http://sodipodi.sourceforge.net/DTD/sodipodi-0.dtd"
   xmlns:inkscape="http://www.inkscape.org/namespaces/inkscape"
   width="16"
   viewBox="0 0 16 16.0243"
   height="16.0243"
   id="svg4310"
   version="1.1"
   inkscape:version="0.91 r13725"
   sodipodi:docname="reboot.svg">
  <metadata
     id="metadata4322">
    <rdf:RDF>
      <cc:Work
         rdf:about="">
        <dc:format>image/svg+xml</dc:format>
        <dc:type
           rdf:resource="http://purl.org/dc/dcmitype/StillImage" />
        <dc:title></dc:title>
      </cc:Work>
    </rdf:RDF>
  </metadata>
  <sodipodi:namedview
     pagecolor="#ffffff"
     bordercolor="#666666"
     borderopacity="1"
     objecttolerance="10"
     gridtolerance="10"
     guidetolerance="10"
     inkscape:pageopacity="0"
     inkscape:pageshadow="2"
     inkscape:window-width="1600"
     inkscape:window-height="882"
     id="namedview4320"
     showgrid="false"
     inkscape:zoom="7.744316"
     inkscape:cx="17.030953"
     inkscape:cy="11.8666"
     inkscape:window-x="0"
     inkscape:window-y="18"
     inkscape:window-maximized="0"
     inkscape:current-layer="svg4310" />
  <defs
     id="defs4312" />
  <rect
     style="fill:#002b36;fill-opacity:1;stroke:none;stroke-width:6.5999999;stroke-miterlimit:4;stroke-dasharray:none;stroke-opacity:1"
     id="rect4326"
     width="48"
     height="48.021"
     x="-16"
     y="-15.982875" />
  <path
     inkscape:connector-curvature="0"
     id="path4316"
     d="m 0.5,-14.93025 c -9.6048537,3.177218 -16.5,12.3073803 -16.5,22.875 0,13.168785 10.7411349,24.09375 24,24.09375 13.258866,0 24,-10.924965 24,-24.09375 0,-10.5659637 -6.897072,-19.696109 -16.5,-22.875 l 0,6.46875 C 21.625892,-5.575644 26,0.6276579 26,7.94475 c 0,10.101102 -8.07126,18.1875 -18,18.1875 -9.9287391,0 -18,-8.086398 -18,-18.1875 0,-7.3774776 4.3313328,-13.6428129 10.5,-16.5 l 0,-6.375 z"
     style="color:#000000;line-height:normal;fill:#b58900;fill-opacity:1" />
  <rect
     style="fill:#b58900;fill-opacity:1"
     id="rect4318"
     transform="scale(-1,1)"
     height="27.228174"
     ry="0"
     rx="2.5110002"
     y="-15.08084"
     x="-17.127657"
     width="6" />
  <rect
     style="fill:#b58900;fill-opacity:1"
     id="rect4318-3"
     transform="matrix(-0.70710678,0.70710678,0.70710678,0.70710678,0,0)"
     height="15.994127"
     ry="0"
     rx="2.5110002"
     y="2.6469529"
     x="-6.23458"
     width="6" />
  <rect
     style="fill:#b58900;fill-opacity:1"
     id="rect4318-6"
     transform="scale(-1,1)"
     height="12.120319"
     ry="0"
     rx="2.5110002"
     y="-12.891333"
     x="-0.49522752"
     width="6" />
</svg>
